{
  "accessors": [
    {
      "bufferView": 2,
      "componentType": 5126,
      "count": 66,
      "max": [
        0.706000030040741,
        0.6820000410079956,
        0.0
      ],
      "min": [
        0.07400000095367432,
        0.0,
        -0.10000000149011612
      ],
      "type": "VEC3"
    },
    {
      "bufferView": 2,
      "byteOffset": 792,
      "componentType": 5126,
      "count": 66,
      "max": [
        1.0,
        1.0,
        1.0
      ],
      "min": [
        -1.0,
        -1.0,
        -1.0
      ],
      "type": "VEC3"
    },
    {
      "bufferView": 1,
      "componentType": 5126,
      "count": 66,
      "max": [
        1.0,
        0.0
      ],
      "min": [
        0.0,
        0.0
      ],
      "type": "VEC2"
    },
    {
      "bufferView": 0,
      "componentType": 5125,
      "count": 108,
      "type": "SCALAR"
    },
    {
      "bufferView": 2,
      "byteOffset": 1584,
      "componentType": 5126,
      "count": 869,
      "max": [
        0.42600002884864807,
        0.6910000443458557,
        0.0
      ],
      "min": [
        0.04000000283122063,
        -0.009000000543892384,
        -0.10000000149011612
      ],
      "type": "VEC3"
    },
    {
      "bufferView": 2,
      "byteOffset": 12012,
      "componentType": 5126,
      "count": 869,
      "max": [
        1.0,
        0.999671459197998,
        1.0
      ],
      "min": [
        -1.0,
        -0.9997363090515137,
        -1.0
      ],
      "type": "VEC3"
    },
    {
      "bufferView": 1,
      "byteOffset": 528,
      "componentType": 5126,
      "count": 869,
      "max": [
        1.0,
        0.0
      ],
      "min": [
        0.0,
        0.0
      ],
      "type": "VEC2"
    },
    {
      "bufferView": 0,
      "byteOffset": 432,
      "componentType": 5125,
      "count": 1452,
      "type": "SCALAR"
    },
    {
      "bufferView": 2,
      "byteOffset": 22440,
      "componentType": 5126,
      "count": 2880,
      "max": [
        53.67859649658203,
        1.0000026226043701,
        3.1083600521087646
      ],
      "min": [
        -53.67859649658203,
        -1.0000104904174805,
        -6.928104400634766
      ],
      "type": "VEC3"
    },
    {
      "bufferView": 2,
      "byteOffset": 57000,
      "componentType": 5126,
      "count": 2880,
      "max": [
        1.0,
        0.9951849579811096,
        1.0
      ],
      "min": [
        -1.0,
        -0.9951848387718201,
        -1.0
      ],
      "type": "VEC3"
    },
    {
      "bufferView": 1,
      "byteOffset": 7480,
      "componentType": 5126,
      "count": 2880,
      "max": [
        1.0,
        1.0
      ],
      "min": [
        0.0,
        0.01000000536441803
      ],
      "type": "VEC2"
    },
    {
      "bufferView": 0,
      "byteOffset": 6240,
      "componentType": 5125,
      "count": 5580,
      "type": "SCALAR"
    },
    {
      "bufferView": 2,
      "byteOffset": 91560,
      "componentType": 5126,
      "count": 60,
      "max": [
        0.4746439754962921,
        1.0,
        1.0
      ],
      "min": [
        -1.0,
        -1.0,
        -1.0
      ],
      "type": "VEC3"
    },
    {
      "bufferView": 2,
      "byteOffset": 92280,
      "componentType": 5126,
      "count": 60,
      "max": [
        1.0,
        1.0,
        1.0
      ],
      "min": [
        -1.0,
        -1.0,
        -1.0
      ],
      "type": "VEC3"
    },
    {
      "bufferView": 1,
      "byteOffset": 30520,
      "componentType": 5126,
      "count": 60,
      "max": [
        0.875,
        1.0
      ],
      "min": [
        0.11466936767101288,
        0.0
      ],
      "type": "VEC2"
    },
    {
      "bufferView": 0,
      "byteOffset": 28560,
      "componentType": 5125,
      "count": 144,
      "type": "SCALAR"
    },
    {
      "bufferView": 2,
      "byteOffset": 93000,
      "componentType": 5126,
      "count": 60,
      "max": [
        0.4746439754962921,
        1.0,
        1.0
      ],
      "min": [
        -1.0,
        -1.0,
        -1.0
      ],
      "type": "VEC3"
    },
    {
      "bufferView": 2,
      "byteOffset": 93720,
      "componentType": 5126,
      "count": 60,
      "max": [
        1.0,
        1.0,
        1.0
      ],
      "min": [
        -1.0,
        -1.0,
        -1.0
      ],
      "type": "VEC3"
    },
    {
      "bufferView": 1,
      "byteOffset": 31000,
      "componentType": 5126,
      "count": 60,
      "max": [
        0.875,
        1.0
      ],
      "min": [
        0.11466936767101288,
        0.0
      ],
      "type": "VEC2"
    },
    {
      "bufferView": 0,
      "byteOffset": 29136,
      "componentType": 5125,
      "count": 144,
      "type": "SCALAR"
    },
    {
      "bufferView": 2,
      "byteOffset": 94440,
      "componentType": 5126,
      "count": 260,
      "max": [
        1.0,
        1.0,
        1.0
      ],
      "min": [
        -1.0,
        -1.0,
        -1.0
      ],
      "type": "VEC3"
    },
    {
      "bufferView": 2,
      "byteOffset": 97560,
      "componentType": 5126,
      "count": 260,
      "max": [
        1.0,
        1.0,
        1.0
      ],
      "min": [
        -1.0,
        -1.0,
        -1.0
      ],
      "type": "VEC3"
    },
    {
      "bufferView": 1,
      "byteOffset": 31480,
      "componentType": 5126,
      "count": 260,
      "max": [
        1.0,
        1.0
      ],
      "min": [
        0.0,
        0.01000000536441803
      ],
      "type": "VEC2"
    },
    {
      "bufferView": 0,
      "byteOffset": 29712,
      "componentType": 5125,
      "count": 768,
      "type": "SCALAR"
    },
    {
      "bufferView": 2,
      "byteOffset": 100680,
      "componentType": 5126,
      "count": 260,
      "max": [
        1.0,
        1.0,
        1.0
      ],
      "min": [
        -1.0,
        -1.0,
        -1.0
      ],
      "type": "VEC3"
    },
    {
      "bufferView": 2,
      "byteOffset": 103800,
      "componentType": 5126,
      "count": 260,
      "max": [
        1.0,
        1.0,
        1.0
      ],
      "min": [
        -1.0,
        -1.0,
        -1.0
      ],
      "type": "VEC3"
    },
    {
      "bufferView": 1,
      "byteOffset": 33560,
      "componentType": 5126,
      "count": 260,
      "max": [
        1.0,
        1.0
      ],
      "min": [
        0.0,
        0.01000000536441803
      ],
      "type": "VEC2"
    },
    {
      "bufferView": 0,
      "byteOffset": 32784,
      "componentType": 5125,
      "count": 768,
      "type": "SCALAR"
    },
    {
      "bufferView": 2,
      "byteOffset": 106920,
      "componentType": 5126,
      "count": 1528,
      "max": [
        21.21436309814453,
        41.21836471557617,
        2.599822998046875
      ],
      "min": [
        -8.210247039794922,
        -40.3890266418457,
        -0.16642379760742188
      ],
      "type": "VEC3"
    },
    {
      "bufferView": 2,
      "byteOffset": 125256,
      "componentType": 5126,
      "count": 1528,
      "max": [
        1.0,
        1.0,
        1.0
      ],
      "min": [
        -1.0,
        -1.0,
        -1.0
      ],
      "type": "VEC3"
    },
    {
      "bufferView": 1,
      "byteOffset": 35640,
      "componentType": 5126,
      "count": 1528,
      "max": [
        1.0,
        1.0
      ],
      "min": [
        0.0,
        0.0
      ],
      "type": "VEC2"
    },
    {
      "bufferView": 0,
      "byteOffset": 35856,
      "componentType": 5125,
      "count": 3072,
      "type": "SCALAR"
    },
    {
      "bufferView": 2,
      "byteOffset": 143592,
      "componentType": 5126,
      "count": 968,
      "max": [
        0.561305046081543,
        -26.91619110107422,
        1.4300004243850708
      ],
      "min": [
        -7.404722690582275,
        -33.59596633911133,
        0.9963591694831848
      ],
      "type": "VEC3"
    },
    {
      "bufferView": 2,
      "byteOffset": 155208,
      "componentType": 5126,
      "count": 968,
      "max": [
        0.06052065268158913,
        0.5313358902931213,
        0.9998317956924438
      ],
      "min": [
        -0.06046467646956444,
        -0.5146061778068542,
        -0.9998317956924438
      ],
      "type": "VEC3"
    },
    {
      "bufferView": 1,
      "byteOffset": 47864,
      "componentType": 5126,
      "count": 968,
      "max": [
        1.0,
        0.0
      ],
      "min": [
        0.0,
        0.0
      ],
      "type": "VEC2"
    },
    {
      "bufferView": 0,
      "byteOffset": 48144,
      "componentType": 5125,
      "count": 1164,
      "type": "SCALAR"
    }
  ],
  "asset": {
    "extras": {
      "author": "joh.mackell (https://sketchfab.com/joh.mackell)",
      "license": "CC-BY-4.0 (http://creativecommons.org/licenses/by/4.0/)",
      "source": "https://sketchfab.com/3d-models/simple-ac-motor-design-2b61b44bd436405a9350169c2f267d5d",
      "title": "Simple AC Motor Design"
    },
    "generator": "Sketchfab-16.65.0",
    "version": "2.0"
  },
  "bufferViews": [
    {
      "buffer": 0,
      "byteLength": 52800,
      "name": "floatBufferViews",
      "target": 34963
    },
    {
      "buffer": 0,
      "byteLength": 55608,
      "byteOffset": 52800,
      "byteStride": 8,
      "name": "floatBufferViews",
      "target": 34962
    },
    {
      "buffer": 0,
      "byteLength": 166824,
      "byteOffset": 108408,
      "byteStride": 12,
      "name": "floatBufferViews",
      "target": 34962
    }
  ],
  "buffers": [
    {
      "byteLength": 275232,
      "uri": "scene.bin"
    }
  ],
  "materials": [
    {
      "doubleSided": true,
      "name": "black",
      "pbrMetallicRoughness": {
        "baseColorFactor": [
          0.0,
          0.0,
          0.0,
          1.0
        ],
        "metallicFactor": 0.27276273603881457,
        "roughnessFactor": 0.3188550669868708
      }
    },
    {
      "doubleSided": true,
      "name": "copper",
      "pbrMetallicRoughness": {
        "baseColorFactor": [
          0.8006379999999998,
          0.2877949999999997,
          0.07709169999999999,
          1.0
        ],
        "metallicFactor": 0.7299069863831965,
        "roughnessFactor": 0.2761882702880619
      }
    },
    {
      "doubleSided": true,
      "name": "material",
      "pbrMetallicRoughness": {
        "baseColorFactor": [
          0.800385,
          0.00750654,
          0.00750654,
          1.0
        ],
        "metallicFactor": 0.0,
        "roughnessFactor": 0.9606289919698972
      }
    },
    {
      "doubleSided": true,
      "name": "blue",
      "pbrMetallicRoughness": {
        "baseColorFactor": [
          0.0528759,
          0.19648500000000022,
          0.8004819999999999,
          1.0
        ],
        "metallicFactor": 0.0,
        "roughnessFactor": 0.9531404476856922
      }
    },
    {
      "doubleSided": true,
      "name": "Material",
      "pbrMetallicRoughness": {
        "baseColorFactor": [
          0.8,
          0.8,
          0.8,
          1.0
        ],
        "metallicFactor": 0.0,
        "roughnessFactor": 0.8211145618000169
      }
    }
  ],
  "meshes": [
    {
      "name": "Text.001_black_0",
      "primitives": [
        {
          "attributes": {
            "NORMAL": 1,
            "POSITION": 0,
            "TEXCOORD_0": 2
          },
          "indices": 3,
          "material": 0,
          "mode": 4
        }
      ]
    },
    {
      "name": "Text_black_0",
      "primitives": [
        {
          "attributes": {
            "NORMAL": 5,
            "POSITION": 4,
            "TEXCOORD_0": 6
          },
          "indices": 7,
          "material": 0,
          "mode": 4
        }
      ]
    },
    {
      "name": "Cylinder_copper_0",
      "primitives": [
        {
          "attributes": {
            "NORMAL": 9,
            "POSITION": 8,
            "TEXCOORD_0": 10
          },
          "indices": 11,
          "material": 1,
          "mode": 4
        }
      ]
    },
    {
      "name": "Cube.001_red_0",
      "primitives": [
        {
          "attributes": {
            "NORMAL": 13,
            "POSITION": 12,
            "TEXCOORD_0": 14
          },
          "indices": 15,
          "material": 2,
          "mode": 4
        }
      ]
    },
    {
      "name": "Cube_blue_0",
      "primitives": [
        {
          "attributes": {
            "NORMAL": 17,
            "POSITION": 16,
            "TEXCOORD_0": 18
          },
          "indices": 19,
          "material": 3,
          "mode": 4
        }
      ]
    },
    {
      "name": "Cylinder.001_copper_0",
      "primitives": [
        {
          "attributes": {
            "NORMAL": 21,
            "POSITION": 20,
            "TEXCOORD_0": 22
          },
          "indices": 23,
          "material": 1,
          "mode": 4
        }
      ]
    },
    {
      "name": "Cylinder.004_copper_0",
      "primitives": [
        {
          "attributes": {
            "NORMAL": 25,
            "POSITION": 24,
            "TEXCOORD_0": 26
          },
          "indices": 27,
          "material": 1,
          "mode": 4
        }
      ]
    },
    {
      "name": "Cylinder.002_black_0",
      "primitives": [
        {
          "attributes": {
            "NORMAL": 29,
            "POSITION": 28,
            "TEXCOORD_0": 30
          },
          "indices": 31,
          "material": 0,
          "mode": 4
        }
      ]
    },
    {
      "name": "Cylinder.002_Material_0",
      "primitives": [
        {
          "attributes": {
            "NORMAL": 33,
            "POSITION": 32,
            "TEXCOORD_0": 34
          },
          "indices": 35,
          "material": 4,
          "mode": 4
        }
      ]
    }
  ],
  "nodes": [
    {
      "children": [
        1
      ],
      "matrix": [
        1.0,
        0.0,
        0.0,
        0.0,
        0.0,
        2.220446049250313e-16,
        -1.0,
        0.0,
        0.0,
        1.0,
        2.220446049250313e-16,
        0.0,
        0.0,
        0.0,
        0.0,
        1.0
      ],
      "name": "Sketchfab_model"
    },
    {
      "children": [
        2
      ],
      "matrix": [
        0.009999999776482582,
        0.0,
        0.0,
        0.0,
        0.0,
        0.0,
        0.009999999776482582,
        0.0,
        0.0,
        -0.009999999776482582,
        0.0,
        0.0,
        0.0,
        0.0,
        0.0,
        1.0
      ],
      "name": "5ae2ec37314e4604a8ffd5ea6b3454b5.fbx"
    },
    {
      "children": [
        3,
        5,
        7,
        9,
        11,
        13,
        15,
        17
      ],
      "name": "RootNode"
    },
    {
      "children": [
        4
      ],
      "matrix": [
        100.0,
        0.0,
        0.0,
        0.0,
        0.0,
        99.9999999999999,
        4.371138828673792e-06,
        0.0,
        0.0,
        -4.371138828673792e-06,
        99.9999999999999,
        0.0,
        205.3423614501953,
        -35.38340377807617,
        287.1724853515625,
        1.0
      ],
      "name": "Text.001"
    },
    {
      "mesh": 0,
      "name": "Text.001_black_0"
    },
    {
      "children": [
        6
      ],
      "matrix": [
        100.0,
        0.0,
        0.0,
        0.0,
        0.0,
        99.9999999999999,
        4.371138828673792e-06,
        0.0,
        0.0,
        -4.371138828673792e-06,
        99.9999999999999,
        0.0,
        -268.5133361816406,
        -38.10520553588867,
        287.1724853515625,
        1.0
      ],
      "name": "Text"
    },
    {
      "mesh": 1,
      "name": "Text_black_0"
    },
    {
      "children": [
        8
      ],
      "matrix": [
        2.728972911834717,
        0.0,
        0.0,
        0.0,
        0.0,
        2.728972911834714,
        1.192871945731971e-07,
        0.0,
        0.0,
        -3.5786154620180586e-06,
        81.86917877197257,
        0.0,
        -0.1894129514694214,
        -24.244396209716797,
        320.97076416015625,
        1.0
      ],
      "name": "Cylinder"
    },
    {
      "mesh": 2,
      "name": "Cylinder_copper_0"
    },
    {
      "children": [
        10
      ],
      "matrix": [
        -99.99999999999241,
        -2.0106479128511335e-12,
        3.894143777553011e-05,
        0.0,
        0.00010889398839834726,
        2.1111874385765e-05,
        279.635253906228,
        0.0,
        -4.9506446735564255e-12,
        99.9999999999997,
        -7.549789970973109e-06,
        0.0,
        196.3987274169922,
        0.0,
        0.0,
        1.0
      ],
      "name": "Cube.001"
    },
    {
      "mesh": 3,
      "name": "Cube.001_red_0"
    },
    {
      "children": [
        12
      ],
      "matrix": [
        100.0,
        0.0,
        0.0,
        0.0,
        -0.0,
        -4.555836554831353e-05,
        -279.6352539062463,
        0.0,
        0.0,
        99.99999999999868,
        -1.629206793918314e-05,
        0.0,
        -196.92791748046875,
        0.0,
        0.0,
        1.0
      ],
      "name": "Cube"
    },
    {
      "mesh": 4,
      "name": "Cube_blue_0"
    },
    {
      "children": [
        14
      ],
      "matrix": [
        80.27299499511719,
        0.0,
        0.0,
        0.0,
        0.0,
        80.2729949951171,
        3.508844053170938e-06,
        0.0,
        0.0,
        -1.252161927468539e-06,
        28.646125793457003,
        0.0,
        0.0,
        -24.615074157714844,
        348.62261962890625,
        1.0
      ],
      "name": "Cylinder.001"
    },
    {
      "mesh": 5,
      "name": "Cylinder.001_copper_0"
    },
    {
      "children": [
        16
      ],
      "matrix": [
        75.81636047363281,
        0.0,
        0.0,
        0.0,
        0.0,
        75.81636047363274,
        3.3140383711502534e-06,
        0.0,
        0.0,
        -1.1826438053600327e-06,
        27.05573654174802,
        0.0,
        0.0,
        -24.615074157714844,
        549.90966796875,
        1.0
      ],
      "name": "Cylinder.004"
    },
    {
      "mesh": 6,
      "name": "Cylinder.004_copper_0"
    },
    {
      "children": [
        18,
        19
      ],
      "matrix": [
        -2.7289729118345107,
        -3.342027941437955e-16,
        1.0627012883731885e-06,
        0.0,
        -4.6786351573184285e-14,
        2.728972911834714,
        -1.192871949073909e-07,
        0.0,
        -3.188103530882521e-05,
        -3.5786154720441454e-06,
        -81.8691787719664,
        0.0,
        125.60810852050781,
        -101.79214477539063,
        548.9715576171875,
        1.0
      ],
      "name": "Cylinder.002"
    },
    {
      "mesh": 7,
      "name": "Cylinder.002_black_0"
    },
    {
      "mesh": 8,
      "name": "Cylinder.002_Material_0"
    }
  ],
  "scene": 0,
  "scenes": [
    {
      "name": "Sketchfab_Scene",
      "nodes": [
        0
      ]
    }
  ]
}
