{
    "asset": {
        "version": "2.0"
    },
    "scene": 0,
    "scenes": [
        {
            "nodes": [
                0
            ]
        }
    ],
    "nodes": [
        {
            "children": [
                1
            ],
            "matrix": [
                0.001,
                0,
                0,
                0,
                0,
                0.001,
                0,
                0,
                0,
                0,
                0.001,
                0,
                0,
                0,
                0,
                1
            ],
            "name": "Part1",
            "extras": {
                "Dtk_PrototypeID": 1
            }
        },
        {
            "mesh": 0,
            "name": "Mesh"
        }
    ],
    "meshes": [
        {
            "primitives": [
                {
                    "attributes": {
                        "NORMAL": 2,
                        "POSITION": 1
                    },
                    "indices": 0,
                    "material": 0,
                    "mode": 4
                }
            ]
        }
    ],
    "accessors": [
        {
            "bufferView": 0,
            "byteOffset": 0,
            "componentType": 5123,
            "count": 96258,
            "max": [
                20583
            ],
            "min": [
                0
            ],
            "type": "SCALAR"
        },
        {
            "bufferView": 1,
            "byteOffset": 0,
            "componentType": 5126,
            "count": 20584,
            "max": [
                9.999923706,
                7.5,
                11.25
            ],
            "min": [
                -9.999923706,
                -7.5,
                -9.5
            ],
            "type": "VEC3"
        },
        {
            "bufferView": 1,
            "byteOffset": 247008,
            "componentType": 5126,
            "count": 20584,
            "max": [
                1,
                1,
                1
            ],
            "min": [
                -1,
                -1,
                -1
            ],
            "type": "VEC3"
        }
    ],
    "materials": [
        {
            "pbrMetallicRoughness": {
                "baseColorFactor": [
                    1,
                    0.8705882353,
                    0.5294117647,
                    1
                ],
                "metallicFactor": 0,
                "roughnessFactor": 1
            },
            "doubleSided": true,
            "alphaMode": "OPAQUE",
            "extras": {
                "Dtk_ColorId": 1
            }
        }
    ],
    "bufferViews": [
        {
            "buffer": 0,
            "byteOffset": 0,
            "byteLength": 192516,
            "target": 34963
        },
        {
            "buffer": 0,
            "byteOffset": 192516,
            "byteLength": 494016,
            "byteStride": 12,
            "target": 34962
        }
    ],
    "buffers": [
        {
            "byteLength": 686532,
            "uri": "housing_front.bin"
        }
    ]
}